<svg id="Capa_1" enable-background="new 0 0 512 512" height="512" viewBox="0 0 512 512" width="512" xmlns="http://www.w3.org/2000/svg"><g><path d="m256 351.931 8.614 88.84-8.614 71.229h-159.369c-39.3 0-71.87-31.46-72.12-70.76-.26-39.58 31.75-71.7 71.22-71.7l.73-.08z" fill="#ace233"/><path d="m480.909 455.77c4.26 5.97 6.71 13.3 6.58 21.22-.32 19.54-16.7 35.01-36.25 35.01h-195.239v-160.069h.01l159.529 17.53.73.08h34.97c19.55 0 35.93 15.47 36.25 35.01.13 7.92-2.32 15.25-6.58 21.22-3.3 4.66-7.71 8.49-12.83 11.11-1.431.735-2.41 2.184-2.41 3.89 0 1.65.94 3.14 2.41 3.89 5.12 2.619 9.53 6.449 12.83 11.109z" fill="#00cc76"/><path d="m256 227.011 8.614 71.225-8.614 71.225h-195.239c-19.55 0-35.93-15.46-36.25-35-.13-7.93 2.32-15.25 6.58-21.22 3.3-4.66 7.71-8.49 12.83-11.11 3.245-1.666 3.176-6.169 0-7.79-5.12-2.61-9.53-6.45-12.83-11.1-4.26-5.97-6.71-13.3-6.58-21.22.32-19.54 16.7-35.01 36.25-35.01z" fill="#fed843"/><path d="m487.489 297.771c.26 39.57-31.75 71.69-71.22 71.69h-160.269v-142.45h159.369c39.3 0 71.87 31.45 72.12 70.76z" fill="#ffb64c"/><path d="m227.242 74.019-87.962-58.793c-5.963-3.986-13.389-4.52-19.861-1.427s-10.721 9.205-11.366 16.349l-9.505 105.273c-2.728 30.22 11.178 59.708 36.29 76.958 14.117 9.697 30.212 14.611 46.444 14.611 12.351 0 24.782-2.847 36.476-8.599 27.265-13.411 44.713-39.111 46.673-68.749 1.983-29.988-12.266-58.966-37.189-75.623z" fill="#ff6a4d"/><path d="m413.452 135.421-9.505-105.272c-.645-7.144-4.894-13.256-11.366-16.349s-13.896-2.56-19.86 1.427l-87.963 58.793c-24.922 16.658-39.172 45.635-37.189 75.623 1.96 29.638 19.408 55.339 46.673 68.749 11.696 5.753 24.123 8.599 36.476 8.599 16.229 0 32.328-4.916 46.444-14.611 25.112-17.251 39.018-46.74 36.29-76.959z" fill="#e62e6b"/><path d="m256 .053 8.614 113.469-8.614 113.469h-.44c-30.16 0-56.99-15.7-71.76-41.99-14.92-26.56-14.38-59.16 1.4-85.07l55-90.28c3.44-5.658 9.28-9.158 15.8-9.598z" fill="#ff9100"/><g><g><path d="m256 283.241 8.614 14.995-8.614 15.005h-224.909c3.3-4.66 7.71-8.49 12.83-11.11 3.245-1.666 3.176-6.169 0-7.79-5.12-2.61-9.53-6.45-12.83-11.1z" fill="#ffb64c"/></g></g><g><g><path d="m424.139 298.241c0 8.28-6.71 15-15 15h-153.139v-30h153.139c8.29 0 15 6.72 15 15z" fill="#ff9100"/></g></g><g><g><path d="m256 425.77 8.614 15-8.614 15h-153.139c-8.29 0-15-6.72-15-15 0-8.29 6.71-15 15-15z" fill="#00cc76"/></g></g><g><g><path d="m480.909 455.77h-224.909v-30h224.909c-3.3 4.66-7.71 8.49-12.83 11.11-1.431.735-2.41 2.184-2.41 3.89 0 1.65.94 3.14 2.41 3.89 5.12 2.62 9.53 6.45 12.83 11.11z" fill="#008475"/></g></g><path d="m327.78 185.902c-14.77 25.61-41.58 40.94-71.78 41.09v-226.939c.53-.04 1.07-.06 1.61-.05 7.17.08 13.6 3.84 17.19 10.05l52.99 91.579c15.01 25.94 15.01 58.24-.01 84.27z" fill="#ff6a4d"/></g></svg>